<?xml version="1.0" encoding="UTF-8"?>
<svg xmlns="http://www.w3.org/2000/svg" xmlns:xlink="http://www.w3.org/1999/xlink" viewBox="0 0 555 389.23">
  <defs>
    <style>
      .cls-1 {
        fill: url(#linear-gradient-2);
      }

      .cls-2 {
        fill: url(#linear-gradient-10);
      }

      .cls-3 {
        fill: url(#linear-gradient-12);
      }

      .cls-4 {
        fill: url(#linear-gradient-4);
      }

      .cls-5 {
        fill: url(#linear-gradient-3);
      }

      .cls-6 {
        fill: url(#linear-gradient-5);
      }

      .cls-7 {
        isolation: isolate;
      }

      .cls-8 {
        fill: url(#linear-gradient-8);
      }

      .cls-9 {
        font-family: MavenPro-Regular, 'Maven Pro';
        font-size: 44.63px;
      }

      .cls-9, .cls-10 {
        fill: #1a001a;
      }

      .cls-11 {
        fill: url(#linear-gradient-7);
      }

      .cls-12 {
        fill: url(#linear-gradient-9);
      }

      .cls-13 {
        fill: url(#linear-gradient-11);
      }

      .cls-14 {
        fill: url(#linear-gradient-6);
      }

      .cls-10 {
        font-family: MavenPro-Medium, 'Maven Pro';
        font-size: 89.27px;
        font-weight: 500;
      }

      .cls-15 {
        mix-blend-mode: screen;
        opacity: .3;
      }

      .cls-16 {
        fill: url(#linear-gradient);
      }
    </style>
    <linearGradient id="linear-gradient" x1="461.96" y1="88.83" x2="354.09" y2="421.11" gradientUnits="userSpaceOnUse">
      <stop offset="0" stop-color="#5d23e8"/>
      <stop offset="1" stop-color="#70369d"/>
    </linearGradient>
    <linearGradient id="linear-gradient-2" x1="348.3" y1="51.93" x2="240.42" y2="384.21" gradientUnits="userSpaceOnUse">
      <stop offset="0" stop-color="#a2d63a"/>
      <stop offset="1" stop-color="#79c214"/>
    </linearGradient>
    <linearGradient id="linear-gradient-3" x1="387.98" y1="64.81" x2="280.1" y2="397.09" gradientUnits="userSpaceOnUse">
      <stop offset="0" stop-color="#487de7"/>
      <stop offset="1" stop-color="#4b369d"/>
    </linearGradient>
    <linearGradient id="linear-gradient-4" x1="274.32" y1="27.91" x2="166.44" y2="360.19" gradientUnits="userSpaceOnUse">
      <stop offset="0" stop-color="#fff70a"/>
      <stop offset="1" stop-color="orange"/>
    </linearGradient>
    <linearGradient id="linear-gradient-5" x1="314" y1="40.79" x2="206.12" y2="373.08" gradientUnits="userSpaceOnUse">
      <stop offset="0" stop-color="#ff7f4d"/>
      <stop offset="1" stop-color="#e64f40"/>
    </linearGradient>
    <linearGradient id="linear-gradient-6" x1="200.34" y1="3.89" x2="92.46" y2="336.17" gradientUnits="userSpaceOnUse">
      <stop offset="0" stop-color="#ff2966"/>
      <stop offset="1" stop-color="#e81416"/>
    </linearGradient>
    <linearGradient id="linear-gradient-7" x1="353.02" y1="353.51" x2="345.43" y2="376.88" xlink:href="#linear-gradient"/>
    <linearGradient id="linear-gradient-8" x1="140.37" y1="97.41" x2="261.98" y2="361.51" xlink:href="#linear-gradient-4"/>
    <linearGradient id="linear-gradient-9" x1="198.53" y1="104.64" x2="320.65" y2="360.09" xlink:href="#linear-gradient-2"/>
    <linearGradient id="linear-gradient-10" x1="198.65" y1="104.58" x2="320.78" y2="360.03" xlink:href="#linear-gradient-2"/>
    <linearGradient id="linear-gradient-11" x1="121.43" y1="106.14" x2="243.04" y2="370.23" xlink:href="#linear-gradient-4"/>
    <linearGradient id="linear-gradient-12" x1="49.48" y1="96.69" x2="185.35" y2="372.49" xlink:href="#linear-gradient-6"/>
  </defs>
  <g class="cls-7">
    <g id="Layer_1">
      <g>
        <g>
          <text class="cls-10" transform="translate(20.49 71.72)"><tspan x="0" y="0">ColorWaves</tspan></text>
          <text class="cls-9" transform="translate(514.27 29.79) scale(.58)"><tspan x="0" y="0">®</tspan></text>
        </g>
        <g>
          <path class="cls-16" d="M444.45,108.39c-8.82,81.73-55.65,225.83-120.2,261.63h47c64.55-35.8,111.37-179.9,120.2-261.63h-47Z"/>
          <path class="cls-1" d="M250.9,108.39c8.82,81.73,55.65,225.83,120.2,261.63h-47c-64.55-35.8-111.37-179.9-120.2-261.63h47Z"/>
          <path class="cls-5" d="M362.67,108.39c-8.82,81.73-55.65,225.83-120.2,261.63h47c64.55-35.8,111.37-179.9,120.2-261.63h-47Z"/>
          <path class="cls-4" d="M169.12,108.39c8.82,81.73,55.65,225.83,120.2,261.63h-47c-64.55-35.8-111.37-179.9-120.2-261.63h47Z"/>
          <path class="cls-6" d="M280.89,108.39c-8.82,81.73-55.65,225.83-120.2,261.63h47c64.55-35.8,111.37-179.9,120.2-261.63h-47Z"/>
          <path class="cls-14" d="M87.34,108.39c8.82,81.73,55.65,225.83,120.2,261.63h-47C95.99,334.22,49.17,190.12,40.34,108.39h47Z"/>
          <g class="cls-15">
            <path class="cls-11" d="M371.09,370h-46.85c8.11-4.49,15.94-10.67,23.45-18.23,7.51,7.56,15.3,13.74,23.4,18.23Z"/>
            <path class="cls-8" d="M289.3,370h-46.8c8.11-4.49,15.89-10.67,23.4-18.23,7.51,7.56,15.3,13.74,23.4,18.23Z"/>
            <g>
              <path class="cls-12" d="M330.29,331.08c-7.42,10.21-15.3,19.19-23.49,26.47-8.2-7.28-16.07-16.21-23.49-26.43,8.38-11.45,16.21-24.55,23.49-38.61,7.24,14.06,15.11,27.11,23.49,38.56Z"/>
              <path class="cls-2" d="M289.43,254.64c-7.05,17.36-14.93,34.03-23.54,49.28-8.61-15.25-16.49-31.92-23.49-49.28,9.34-22.9,17.22-46.9,23.49-70.07,6.27,23.17,14.15,47.17,23.54,70.07Z"/>
            </g>
            <path class="cls-13" d="M248.54,331.12c-7.46,10.21-15.34,19.14-23.54,26.43-8.2-7.28-16.07-16.26-23.49-26.47,8.38-11.45,16.26-24.5,23.49-38.56,7.28,14.06,15.11,27.16,23.54,38.61Z"/>
            <path class="cls-3" d="M207.55,370h-46.85c8.11-4.49,15.89-10.67,23.4-18.23,7.51,7.56,15.34,13.74,23.45,18.23Z"/>
          </g>
        </g>
      </g>
    </g>
  </g>
</svg>