<?xml version="1.0" encoding="UTF-8"?>
<svg xmlns="http://www.w3.org/2000/svg" xmlns:xlink="http://www.w3.org/1999/xlink" viewBox="0 0 555 332.55">
  <defs>
    <style>
      .cls-1 {
        fill: url(#linear-gradient-2);
      }

      .cls-2 {
        fill: url(#linear-gradient-10);
      }

      .cls-3 {
        fill: url(#linear-gradient-12);
      }

      .cls-4 {
        fill: url(#linear-gradient-4);
      }

      .cls-5 {
        fill: url(#linear-gradient-3);
      }

      .cls-6 {
        fill: url(#linear-gradient-5);
      }

      .cls-7 {
        isolation: isolate;
      }

      .cls-8 {
        fill: url(#linear-gradient-8);
      }

      .cls-9 {
        fill: url(#linear-gradient-7);
      }

      .cls-10 {
        fill: url(#linear-gradient-9);
      }

      .cls-11 {
        fill: url(#linear-gradient-11);
      }

      .cls-12 {
        fill: url(#linear-gradient-6);
      }

      .cls-13 {
        mix-blend-mode: screen;
        opacity: .3;
      }

      .cls-14 {
        fill: url(#linear-gradient);
      }
    </style>
    <linearGradient id="linear-gradient" x1="513.05" y1="-14.38" x2="383.45" y2="384.81" gradientUnits="userSpaceOnUse">
      <stop offset="0" stop-color="#5d23e8"/>
      <stop offset="1" stop-color="#70369d"/>
    </linearGradient>
    <linearGradient id="linear-gradient-2" x1="376.5" y1="-58.72" x2="246.9" y2="340.48" gradientUnits="userSpaceOnUse">
      <stop offset="0" stop-color="#a2d63a"/>
      <stop offset="1" stop-color="#79c214"/>
    </linearGradient>
    <linearGradient id="linear-gradient-3" x1="424.17" y1="-43.24" x2="294.57" y2="355.96" gradientUnits="userSpaceOnUse">
      <stop offset="0" stop-color="#487de7"/>
      <stop offset="1" stop-color="#4b369d"/>
    </linearGradient>
    <linearGradient id="linear-gradient-4" x1="287.62" y1="-87.57" x2="158.02" y2="311.63" gradientUnits="userSpaceOnUse">
      <stop offset="0" stop-color="#fff70a"/>
      <stop offset="1" stop-color="orange"/>
    </linearGradient>
    <linearGradient id="linear-gradient-5" x1="335.29" y1="-72.09" x2="205.69" y2="327.1" gradientUnits="userSpaceOnUse">
      <stop offset="0" stop-color="#ff7f4d"/>
      <stop offset="1" stop-color="#e64f40"/>
    </linearGradient>
    <linearGradient id="linear-gradient-6" x1="198.74" y1="-116.43" x2="69.14" y2="282.77" gradientUnits="userSpaceOnUse">
      <stop offset="0" stop-color="#ff2966"/>
      <stop offset="1" stop-color="#e81416"/>
    </linearGradient>
    <linearGradient id="linear-gradient-7" x1="382.17" y1="303.6" x2="373.05" y2="331.68" xlink:href="#linear-gradient"/>
    <linearGradient id="linear-gradient-8" x1="126.69" y1="-4.07" x2="272.8" y2="313.21" xlink:href="#linear-gradient-4"/>
    <linearGradient id="linear-gradient-9" x1="196.56" y1="4.62" x2="343.28" y2="311.5" xlink:href="#linear-gradient-2"/>
    <linearGradient id="linear-gradient-10" x1="196.71" y1="4.54" x2="343.43" y2="311.43" xlink:href="#linear-gradient-2"/>
    <linearGradient id="linear-gradient-11" x1="103.94" y1="6.41" x2="250.04" y2="323.69" xlink:href="#linear-gradient-4"/>
    <linearGradient id="linear-gradient-12" x1="17.51" y1="-4.94" x2="180.73" y2="326.4" xlink:href="#linear-gradient-6"/>
  </defs>
  <g class="cls-7">
    <g id="Layer_1">
      <g>
        <path class="cls-14" d="M492.01,9.11c-10.6,98.19-66.86,271.31-144.4,314.32h56.46c77.55-43.01,133.8-216.13,144.4-314.32h-56.46Z"/>
        <path class="cls-1" d="M259.48,9.11c10.6,98.19,66.86,271.31,144.4,314.32h-56.46C269.88,280.42,213.62,107.31,203.02,9.11h56.46Z"/>
        <path class="cls-5" d="M393.76,9.11c-10.6,98.19-66.86,271.31-144.4,314.32h56.46c77.55-43.01,133.8-216.13,144.4-314.32h-56.46Z"/>
        <path class="cls-4" d="M161.24,9.11c10.6,98.19,66.86,271.31,144.4,314.32h-56.46C171.63,280.42,115.38,107.31,104.78,9.11h56.46Z"/>
        <path class="cls-6" d="M295.52,9.11c-10.6,98.19-66.86,271.31-144.4,314.32h56.46c77.55-43.01,133.8-216.13,144.4-314.32h-56.46Z"/>
        <path class="cls-12" d="M62.99,9.11c10.6,98.19,66.86,271.31,144.4,314.32h-56.46C73.38,280.42,17.13,107.31,6.53,9.11h56.46Z"/>
        <g class="cls-13">
          <path class="cls-9" d="M403.88,323.41h-56.29c9.74-5.39,19.15-12.82,28.17-21.9,9.02,9.08,18.38,16.51,28.11,21.9Z"/>
          <path class="cls-8" d="M305.61,323.41h-56.23c9.74-5.39,19.09-12.82,28.11-21.9,9.02,9.08,18.38,16.51,28.11,21.9Z"/>
          <g>
            <path class="cls-10" d="M354.86,276.65c-8.91,12.27-18.38,23.05-28.23,31.8-9.85-8.75-19.31-19.48-28.23-31.75,10.07-13.75,19.48-29.49,28.23-46.38,8.69,16.89,18.16,32.57,28.23,46.33Z"/>
            <path class="cls-2" d="M305.78,184.82c-8.47,20.85-17.94,40.88-28.28,59.2-10.34-18.32-19.81-38.35-28.23-59.2,11.22-27.51,20.69-56.34,28.23-84.18,7.54,27.84,17,56.67,28.28,84.18Z"/>
          </g>
          <path class="cls-11" d="M256.65,276.7c-8.97,12.27-18.43,23-28.28,31.75-9.85-8.75-19.31-19.53-28.23-31.8,10.07-13.75,19.53-29.44,28.23-46.33,8.75,16.89,18.16,32.63,28.28,46.38Z"/>
          <path class="cls-3" d="M207.4,323.41h-56.29c9.74-5.39,19.09-12.82,28.11-21.9,9.02,9.08,18.43,16.51,28.17,21.9Z"/>
        </g>
      </g>
    </g>
  </g>
</svg>