<?xml version="1.0" encoding="UTF-8"?>
<svg xmlns="http://www.w3.org/2000/svg" xmlns:xlink="http://www.w3.org/1999/xlink" viewBox="0 0 555 109.28">
  <defs>
    <style>
      .cls-1 {
        fill: url(#linear-gradient-2);
      }

      .cls-2 {
        fill: url(#linear-gradient-10);
      }

      .cls-3 {
        fill: url(#linear-gradient-12);
      }

      .cls-4 {
        fill: url(#linear-gradient-4);
      }

      .cls-5 {
        fill: url(#linear-gradient-3);
      }

      .cls-6 {
        fill: url(#linear-gradient-5);
      }

      .cls-7 {
        isolation: isolate;
      }

      .cls-8 {
        fill: url(#linear-gradient-8);
      }

      .cls-9 {
        fill: url(#linear-gradient-7);
      }

      .cls-10 {
        fill: url(#linear-gradient-9);
      }

      .cls-11 {
        fill: url(#linear-gradient-11);
      }

      .cls-12 {
        fill: url(#linear-gradient-6);
      }

      .cls-13 {
        mix-blend-mode: screen;
        opacity: .3;
      }

      .cls-14 {
        fill: url(#linear-gradient);
      }

      .cls-15 {
        fill: #f7f7f7;
      }
    </style>
    <linearGradient id="linear-gradient" x1="128.3" y1="15.33" x2="100.11" y2="102.19" gradientUnits="userSpaceOnUse">
      <stop offset="0" stop-color="#5d23e8"/>
      <stop offset="1" stop-color="#70369d"/>
    </linearGradient>
    <linearGradient id="linear-gradient-2" x1="98.59" y1="5.69" x2="70.4" y2="92.54" gradientUnits="userSpaceOnUse">
      <stop offset="0" stop-color="#a2d63a"/>
      <stop offset="1" stop-color="#79c214"/>
    </linearGradient>
    <linearGradient id="linear-gradient-3" x1="108.97" y1="9.05" x2="80.77" y2="95.91" gradientUnits="userSpaceOnUse">
      <stop offset="0" stop-color="#487de7"/>
      <stop offset="1" stop-color="#4b369d"/>
    </linearGradient>
    <linearGradient id="linear-gradient-4" x1="79.26" y1="-.59" x2="51.06" y2="86.26" gradientUnits="userSpaceOnUse">
      <stop offset="0" stop-color="#fff70a"/>
      <stop offset="1" stop-color="orange"/>
    </linearGradient>
    <linearGradient id="linear-gradient-5" x1="89.63" y1="2.77" x2="61.43" y2="89.63" gradientUnits="userSpaceOnUse">
      <stop offset="0" stop-color="#ff7f4d"/>
      <stop offset="1" stop-color="#e64f40"/>
    </linearGradient>
    <linearGradient id="linear-gradient-6" x1="59.92" y1="-6.87" x2="31.72" y2="79.99" gradientUnits="userSpaceOnUse">
      <stop offset="0" stop-color="#ff2966"/>
      <stop offset="1" stop-color="#e81416"/>
    </linearGradient>
    <linearGradient id="linear-gradient-7" x1="99.83" y1="84.52" x2="97.84" y2="90.63" xlink:href="#linear-gradient"/>
    <linearGradient id="linear-gradient-8" x1="44.24" y1="17.58" x2="76.03" y2="86.61" xlink:href="#linear-gradient-4"/>
    <linearGradient id="linear-gradient-9" x1="59.44" y1="19.47" x2="91.37" y2="86.24" xlink:href="#linear-gradient-2"/>
    <linearGradient id="linear-gradient-10" x1="59.48" y1="19.45" x2="91.4" y2="86.22" xlink:href="#linear-gradient-2"/>
    <linearGradient id="linear-gradient-11" x1="39.29" y1="19.86" x2="71.08" y2="88.89" xlink:href="#linear-gradient-4"/>
    <linearGradient id="linear-gradient-12" x1="20.48" y1="17.39" x2="56" y2="89.48" xlink:href="#linear-gradient-6"/>
  </defs>
  <g class="cls-7">
    <g id="Layer_1">
      <g>
        <g>
          <g>
            <path class="cls-15" d="M175.77,78.97c-7.1,0-12.45-1.92-16.07-5.76-3.62-3.84-5.42-9.7-5.42-17.56s1.79-13.55,5.36-17.46c3.57-3.91,8.95-5.87,16.14-5.87,2.4,0,4.78.29,7.15.88,2.37.59,4.67,1.4,6.88,2.44v6.71c-2.21-1.31-4.42-2.27-6.61-2.88-2.19-.61-4.35-.92-6.48-.92-3.3,0-6.05.59-8.24,1.76-2.19,1.18-3.82,3.01-4.88,5.49-1.06,2.49-1.59,5.79-1.59,9.9s.54,7.29,1.63,9.8c1.09,2.51,2.72,4.34,4.92,5.49,2.19,1.15,4.98,1.73,8.37,1.73,2.03,0,4.14-.3,6.31-.92,2.17-.61,4.36-1.55,6.58-2.81v6.71c-1.36.68-2.83,1.26-4.41,1.76-1.58.5-3.19.87-4.81,1.12s-3.23.37-4.81.37Z"/>
            <path class="cls-15" d="M212.99,79.31c-5.52,0-9.62-1.56-12.31-4.68-2.69-3.12-4.03-7.57-4.03-13.36,0-6.15,1.39-10.66,4.17-13.53,2.78-2.87,6.79-4.31,12.04-4.31,3.75,0,6.85.69,9.29,2.07,2.44,1.38,4.25,3.4,5.42,6.07,1.17,2.67,1.76,5.9,1.76,9.7,0,5.74-1.41,10.18-4.24,13.32-2.83,3.14-6.86,4.71-12.1,4.71ZM212.92,73.27c2.31,0,4.14-.51,5.49-1.53,1.36-1.02,2.34-2.43,2.95-4.24.61-1.81.92-3.89.92-6.24,0-2.62-.32-4.81-.95-6.58-.63-1.76-1.63-3.09-2.98-3.97-1.36-.88-3.17-1.32-5.42-1.32s-4.07.48-5.42,1.42c-1.36.95-2.33,2.31-2.92,4.07-.59,1.76-.88,3.89-.88,6.37,0,3.75.7,6.69,2.1,8.82,1.4,2.13,3.77,3.19,7.12,3.19Z"/>
            <path class="cls-15" d="M244.66,78.29h-7.05V31.37h7.05v46.92Z"/>
            <path class="cls-15" d="M269.27,79.31c-5.52,0-9.62-1.56-12.31-4.68-2.69-3.12-4.03-7.57-4.03-13.36,0-6.15,1.39-10.66,4.17-13.53,2.78-2.87,6.79-4.31,12.04-4.31,3.75,0,6.85.69,9.29,2.07,2.44,1.38,4.25,3.4,5.42,6.07,1.17,2.67,1.76,5.9,1.76,9.7,0,5.74-1.41,10.18-4.24,13.32-2.83,3.14-6.86,4.71-12.1,4.71ZM269.2,73.27c2.31,0,4.14-.51,5.49-1.53,1.36-1.02,2.34-2.43,2.95-4.24.61-1.81.92-3.89.92-6.24,0-2.62-.32-4.81-.95-6.58-.63-1.76-1.63-3.09-2.98-3.97-1.36-.88-3.17-1.32-5.42-1.32s-4.07.48-5.42,1.42c-1.36.95-2.33,2.31-2.92,4.07-.59,1.76-.88,3.89-.88,6.37,0,3.75.7,6.69,2.1,8.82,1.4,2.13,3.77,3.19,7.12,3.19Z"/>
            <path class="cls-15" d="M293.89,78.29v-30.92c.59-.36,1.67-.86,3.25-1.49,1.58-.63,3.46-1.19,5.63-1.66,2.17-.48,4.36-.71,6.58-.71,1.13,0,2.06.09,2.78.27.72.18,1.33.39,1.83.61v5.7c-1.04-.14-2.12-.24-3.25-.31-1.13-.07-2.26-.07-3.39,0-1.13.07-2.24.17-3.32.31s-2.08.27-2.98.41v27.8h-7.12Z"/>
            <path class="cls-15" d="M331.31,78.29l-13.7-45.23h8.07l10.78,38.51h-1.56l11.39-38.51h6.44l11.66,39.06h-1.9l10.78-39.06h8.07l-13.77,45.23h-7.46l-11.53-36.89h1.83l-11.59,36.89h-7.53Z"/>
            <path class="cls-15" d="M397.02,79.31c-1.76,0-3.46-.17-5.09-.51-1.63-.34-3.11-.92-4.44-1.73-1.33-.81-2.4-1.93-3.19-3.36-.79-1.42-1.19-3.2-1.19-5.32,0-2.53.5-4.61,1.49-6.24.99-1.63,2.42-2.85,4.27-3.66,1.85-.81,4.07-1.22,6.64-1.22,1.72,0,3.27.14,4.65.41,1.38.27,2.62.64,3.73,1.12s2.05,1.01,2.81,1.59l.75,4.68c-.99-.68-2.33-1.25-4-1.73-1.67-.47-3.48-.71-5.42-.71-2.58,0-4.53.45-5.87,1.36-1.33.91-2,2.26-2,4.07,0,1.36.38,2.45,1.15,3.29.77.84,1.73,1.45,2.88,1.83,1.15.38,2.36.58,3.63.58,2.67,0,4.63-.18,5.9-.54,1.26-.36,1.9-1.2,1.9-2.51v-14.24c0-2.4-.72-4.15-2.17-5.26-1.45-1.11-3.5-1.66-6.17-1.66-1.9,0-3.86.3-5.9.92-2.03.61-3.71,1.46-5.02,2.54v-6.64c1.26-.86,3.11-1.55,5.53-2.07,2.42-.52,4.92-.78,7.49-.78,1.26,0,2.54.12,3.83.37,1.29.25,2.5.63,3.63,1.15,1.13.52,2.14,1.22,3.02,2.1.88.88,1.57,1.96,2.07,3.22.5,1.27.75,2.76.75,4.48v16.27c0,2.21-.69,3.92-2.07,5.12-1.38,1.2-3.24,2.01-5.59,2.44-2.35.43-5.02.64-8,.64Z"/>
            <path class="cls-15" d="M432.48,78.29l-14.31-34.04h7.59l11.66,28.28-1.7.2,10.85-28.48h7.39l-14.38,34.04h-7.12Z"/>
            <path class="cls-15" d="M473.37,79.31c-3.35,0-6.25-.68-8.71-2.03-2.46-1.36-4.36-3.37-5.7-6.04-1.33-2.67-2-5.92-2-9.76,0-5.92,1.39-10.41,4.17-13.46,2.78-3.05,6.66-4.58,11.63-4.58,3.66,0,6.62.81,8.88,2.44,2.26,1.63,3.9,3.9,4.92,6.82,1.02,2.92,1.5,6.32,1.46,10.2h-26.78l-.2-5.29h21.56l-1.7,1.7c-.14-3.48-.86-6.02-2.17-7.63-1.31-1.6-3.37-2.41-6.17-2.41-1.81,0-3.35.37-4.61,1.12s-2.23,2.01-2.88,3.8c-.66,1.79-.98,4.24-.98,7.36,0,3.8.88,6.68,2.64,8.64s4.36,2.95,7.8,2.95c1.54,0,2.97-.14,4.31-.41s2.57-.62,3.7-1.05c1.13-.43,2.1-.85,2.92-1.25v6.58c-1.58.68-3.37,1.23-5.36,1.66-1.99.43-4.23.64-6.71.64Z"/>
            <path class="cls-15" d="M506.05,79.31c-2.44,0-4.51-.26-6.2-.78-1.7-.52-3.36-1.16-4.98-1.93v-6.71c1.17.72,2.33,1.37,3.46,1.93,1.13.57,2.32,1.01,3.56,1.32s2.63.48,4.17.48c1.94,0,3.47-.41,4.58-1.22,1.11-.81,1.66-1.83,1.66-3.05,0-1.04-.35-1.85-1.05-2.44-.7-.59-1.59-1.09-2.68-1.49-1.09-.41-2.22-.81-3.39-1.22-1.22-.31-2.44-.69-3.66-1.12-1.22-.43-2.34-1.02-3.36-1.76-1.02-.75-1.83-1.71-2.44-2.88-.61-1.18-.92-2.62-.92-4.34,0-1.9.38-3.51,1.15-4.85.77-1.33,1.77-2.42,3.02-3.25,1.24-.84,2.62-1.45,4.14-1.83,1.51-.38,2.99-.58,4.44-.58,2.4.05,4.35.34,5.87.88,1.51.54,2.99,1.2,4.44,1.97l.07,6.1c-1.63-.86-3.16-1.6-4.61-2.24-1.45-.63-3.12-.95-5.02-.95-1.76,0-3.23.33-4.41.98-1.18.66-1.76,1.62-1.76,2.88,0,1.08.33,1.94.98,2.58.65.63,1.51,1.13,2.58,1.49,1.06.36,2.2.73,3.42,1.09,1.13.36,2.31.74,3.53,1.12,1.22.38,2.35.94,3.39,1.66,1.04.72,1.89,1.67,2.54,2.85.65,1.18.98,2.71.98,4.61-.05,2.53-.71,4.59-2,6.17-1.29,1.58-2.97,2.74-5.05,3.46-2.08.72-4.23,1.08-6.44,1.08Z"/>
          </g>
          <path class="cls-15" d="M530.14,46.59c-.92,0-1.79-.18-2.61-.52s-1.54-.83-2.16-1.45c-.63-.62-1.11-1.34-1.46-2.16-.35-.82-.52-1.69-.52-2.61s.17-1.81.52-2.63c.35-.82.84-1.53,1.46-2.15s1.35-1.1,2.16-1.45,1.69-.52,2.61-.52,1.81.17,2.63.52,1.53.83,2.15,1.45c.62.62,1.1,1.34,1.45,2.15.35.82.52,1.69.52,2.63s-.17,1.79-.52,2.61c-.35.82-.83,1.53-1.45,2.16-.62.62-1.34,1.1-2.15,1.45s-1.69.52-2.63.52ZM530.14,45.9c.83,0,1.61-.16,2.34-.48.73-.32,1.37-.75,1.93-1.3s.99-1.2,1.3-1.93.47-1.51.47-2.34-.16-1.61-.47-2.35c-.32-.74-.75-1.38-1.3-1.94s-1.2-.99-1.93-1.3c-.73-.32-1.51-.47-2.34-.47s-1.61.16-2.34.47c-.73.32-1.37.75-1.93,1.3s-.99,1.2-1.3,1.94c-.32.74-.47,1.52-.47,2.35s.16,1.61.47,2.34.75,1.37,1.3,1.93,1.2.99,1.93,1.3c.73.32,1.51.48,2.34.48ZM527.69,43.71v-7.71h2.83c.83,0,1.48.19,1.94.56s.69.93.69,1.67c0,.45-.07.81-.22,1.1s-.32.5-.53.66c-.21.16-.41.27-.6.34s-.33.11-.42.14l2.11,3.24h-.99l-2-3.12h-1.98v3.12h-.83ZM528.52,39.79h1.96c.54,0,.94-.07,1.2-.23.26-.15.42-.34.5-.57.08-.23.12-.47.12-.7s-.04-.47-.12-.7c-.08-.23-.25-.42-.5-.57-.26-.15-.66-.23-1.2-.23h-1.96v3Z"/>
        </g>
        <g>
          <path class="cls-14" d="M123.73,20.44c-2.31,21.36-14.55,59.03-31.42,68.39h12.28c16.87-9.36,29.11-47.02,31.42-68.39h-12.28Z"/>
          <path class="cls-1" d="M73.13,20.44c2.31,21.36,14.55,59.03,31.42,68.39h-12.28c-16.87-9.36-29.11-47.02-31.42-68.39h12.28Z"/>
          <path class="cls-5" d="M102.35,20.44c-2.31,21.36-14.55,59.03-31.42,68.39h12.28c16.87-9.36,29.11-47.02,31.42-68.39h-12.28Z"/>
          <path class="cls-4" d="M51.76,20.44c2.31,21.36,14.55,59.03,31.42,68.39h-12.28c-16.87-9.36-29.11-47.02-31.42-68.39h12.28Z"/>
          <path class="cls-6" d="M80.97,20.44c-2.31,21.36-14.55,59.03-31.42,68.39h12.28c16.87-9.36,29.11-47.02,31.42-68.39h-12.28Z"/>
          <path class="cls-12" d="M30.38,20.44c2.31,21.36,14.55,59.03,31.42,68.39h-12.28c-16.87-9.36-29.11-47.02-31.42-68.39h12.28Z"/>
          <g class="cls-13">
            <path class="cls-9" d="M104.55,88.83h-12.25c2.12-1.17,4.17-2.79,6.13-4.76,1.96,1.98,4,3.59,6.12,4.76Z"/>
            <path class="cls-8" d="M83.17,88.83h-12.23c2.12-1.17,4.15-2.79,6.12-4.76,1.96,1.98,4,3.59,6.12,4.76Z"/>
            <g>
              <path class="cls-10" d="M93.88,78.65c-1.94,2.67-4,5.02-6.14,6.92-2.14-1.9-4.2-4.24-6.14-6.91,2.19-2.99,4.24-6.42,6.14-10.09,1.89,3.68,3.95,7.09,6.14,10.08Z"/>
              <path class="cls-2" d="M83.21,58.67c-1.84,4.54-3.9,8.89-6.15,12.88-2.25-3.99-4.31-8.34-6.14-12.88,2.44-5.99,4.5-12.26,6.14-18.32,1.64,6.06,3.7,12.33,6.15,18.32Z"/>
            </g>
            <path class="cls-11" d="M72.52,78.67c-1.95,2.67-4.01,5-6.15,6.91-2.14-1.9-4.2-4.25-6.14-6.92,2.19-2.99,4.25-6.4,6.14-10.08,1.9,3.68,3.95,7.1,6.15,10.09Z"/>
            <path class="cls-3" d="M61.8,88.83h-12.25c2.12-1.17,4.15-2.79,6.12-4.76,1.96,1.98,4.01,3.59,6.13,4.76Z"/>
          </g>
        </g>
      </g>
    </g>
  </g>
</svg>