<?xml version="1.0" encoding="UTF-8"?>
<svg id="Layer_1" data-name="Layer 1" xmlns="http://www.w3.org/2000/svg" viewBox="0 0 84.52 84.52">
  <path d="M49.36,55.9c-2.76,2.08-5.37,4.05-8.05,6.07,1.1,1.9,1.32,3.95.32,6.05-.69,1.45-1.81,2.47-3.29,3.09-2.65,1.11-6.59.31-8.28-3.71-1,.24-2,.52-3.02.7-2.02.37-4.05.61-6.08.15-4.13-.92-6.68-4.05-6.86-8.3-.09-2.06.18-4.07.72-6.06.1-.36.04-.52-.31-.7-3.15-1.64-4.39-5.19-2.92-8.3,1.47-3.1,5.02-4.38,8.28-2.99.1.04.2.08.21.08,2.17-2.93,4.32-5.81,6.52-8.78-.55-.55-1.19-1.16-1.81-1.79-.69-.7-.69-1.2,0-1.89.26-.26.54-.5.79-.72-.66-.63-1.26-1.21-1.92-1.84.12-.05.07-.04.05-.02-1.15,1.04-1.15,1.04-2.52.26-2.07-1.19-4.14-2.38-6.22-3.55-.49-.27-.78-.62-.92-1.18-.98-4-1.99-8-2.99-12-.26-1.04.36-1.67,1.39-1.41,4.02,1,8.04,1.99,12.05,3.04.41.11.85.46,1.07.82,1.29,2.16,2.52,4.36,3.77,6.54.6,1.04.57,1.21-.27,2.09-.07.08-.14.16-.21.25.59.59,1.18,1.17,1.9,1.9.23-.28.43-.59.69-.84.74-.75,1.25-.76,1.99-.02.6.6,1.19,1.21,1.76,1.79,2.69-2.02,5.33-4.02,8.02-6.04-1.06-1.77-1.31-3.71-.51-5.73.59-1.49,1.64-2.6,3.09-3.3,3.3-1.59,6.46-.28,8.66,3.56,1.25-.27,2.49-.59,3.74-.81,1.96-.34,3.94-.38,5.88.13,3.84,1.01,6.18,4.04,6.34,8.16.08,1.9-.15,3.77-.6,5.61-.07.29-.14.59-.22.91,1.9.87,3.19,2.25,3.73,4.27.41,1.54.22,3.02-.49,4.43-1.34,2.65-4.81,4.44-8.4,2.73-2.16,2.91-4.31,5.81-6.58,8.86.1.07.33.17.5.33,4.15,4.09,8.3,8.17,12.42,12.29.36.36.65.88.77,1.37.67,2.85,1.28,5.72,1.91,8.58.26,1.17-.31,1.73-1.51,1.47-2.84-.62-5.68-1.23-8.51-1.9-.51-.12-1.06-.42-1.43-.79-4.12-4.12-8.2-8.27-12.29-12.41-.15-.15-.27-.35-.36-.47ZM41.6,30.88c.13-.1.3-.23.46-.37,2.36-1.96,4.84-3.75,7.51-5.27,3.05-1.74,6.21-3.2,9.74-3.68,1.36-.19,1.85.32,1.66,1.69-.37,2.63-1.28,5.09-2.45,7.45-2.32,4.69-5.45,8.82-9,12.63-4.5,4.82-9.41,9.14-15.21,12.36-2.88,1.6-5.87,2.9-9.18,3.33-1.29.17-1.83-.35-1.59-1.63.25-1.3.52-2.6.94-3.85,1.52-4.52,4.09-8.46,7-12.19.46-.59.95-1.18,1.35-1.68-1.6-1.6-3.16-3.17-4.75-4.76-2.28,2.63-4.38,5.46-6.22,8.43.05.11.07.16.09.19,1.63,2.03,2.02,4.28.95,6.65-1.06,2.34-2.98,3.53-5.55,3.7-.18.01-.44.24-.49.42-.5,1.81-.77,3.65-.68,5.53.17,3.64,2.15,5.91,5.76,6.45,2.57.39,5.06-.16,7.49-.95.16-.05.3-.37.32-.58.57-4.73,5.6-7.17,9.63-4.64.36.22.57.15.86-.05,8.84-5.9,16.22-13.26,22.02-22.17.3-.46.34-.74-.01-1.23-2.18-2.93-1.36-7.05,1.74-8.98,1.08-.67,2.27-.95,3.54-.95.61-2.09.98-4.18.76-6.33-.36-3.61-2.23-5.6-5.82-6.1-2.55-.36-5.01.19-7.42.98-.14.05-.26.35-.29.55-.58,4.78-5.56,7.19-9.66,4.65-.34-.21-.54-.14-.81.05-2.06,1.52-4.13,3.03-6.18,4.56-.45.33-.86.72-1.24,1.04,1.59,1.6,3.15,3.17,4.73,4.76ZM48.73,41.29c-5.54-5.54-10.94-10.94-16.24-16.24-1.82,1.81-3.68,3.67-5.44,5.42,5.34,5.34,10.74,10.74,16.23,16.23,1.79-1.78,3.65-3.63,5.45-5.41ZM43.15,32.31c2.39,2.39,4.73,4.73,7.12,7.12,1.07-1.44,2.23-2.9,3.29-4.44,2.12-3.07,3.92-6.3,4.93-9.92.11-.4.19-.82.3-1.35-6.14,1.44-11.04,4.83-15.64,8.59ZM34.31,41.14c-3.75,4.65-7.16,9.54-8.62,15.72,6.19-1.46,11.09-4.85,15.72-8.63-2.38-2.38-4.72-4.72-7.09-7.09ZM27.35,20.21c-.83-1.45-1.78-2.91-2.52-4.48-.61-1.28-1.48-1.9-2.85-2.16-2.14-.41-4.24-1.02-6.36-1.55-.02.03-.04.06-.06.1,1.71,1.72,3.42,3.43,5.07,5.09-.48.52-.93,1-1.48,1.6-1.74-1.73-3.44-3.43-5.13-5.11.64,2.57,1.28,5.18,1.95,7.79.05.2.22.43.4.54,1.95,1.14,3.91,2.25,5.82,3.35,1.73-1.73,3.43-3.43,5.16-5.17ZM48.53,19.43c2.31,0,4.17-1.89,4.16-4.2-.01-2.27-1.88-4.14-4.15-4.14-2.31,0-4.19,1.86-4.19,4.17,0,2.3,1.88,4.18,4.18,4.18ZM71.46,33.03c.01-2.31-1.84-4.2-4.15-4.21-2.3-.01-4.19,1.86-4.19,4.16,0,2.28,1.84,4.15,4.11,4.18,2.31.03,4.21-1.84,4.23-4.13ZM17.24,51.76c2.3,0,4.17-1.89,4.16-4.2-.01-2.28-1.87-4.14-4.15-4.15-2.31,0-4.19,1.86-4.19,4.16,0,2.31,1.87,4.18,4.18,4.18ZM36.03,61.15c-2.31-.02-4.2,1.85-4.2,4.16,0,2.28,1.84,4.16,4.11,4.19,2.31.03,4.21-1.82,4.23-4.13.02-2.31-1.84-4.2-4.14-4.22ZM68.87,61.08c-4.11-4.06-8.25-8.15-12.41-12.26-.71.77-1.35,1.46-1.88,2.03,4.14,4.15,8.22,8.24,12.24,12.26.63-.62,1.32-1.31,2.06-2.03ZM65.1,64.84c-4.07-4.07-8.15-8.15-12.27-12.27-.63.59-1.32,1.24-2.04,1.92,4.12,4.17,8.2,8.3,12.27,12.42.73-.74,1.41-1.43,2.04-2.07ZM69.86,63.43c-1.5,1.5-2.97,2.97-4.46,4.46,1.84.41,3.74.82,5.73,1.26-.45-2.01-.86-3.88-1.27-5.72ZM27.05,27.08c.68-.68,1.35-1.35,1.96-1.96-.54-.55-1.13-1.14-1.66-1.68-.66.64-1.34,1.3-2.03,1.96.58.57,1.17,1.14,1.72,1.68Z"/>
</svg>