<?xml version="1.0" encoding="UTF-8"?>
<svg id="Layer_1" data-name="Layer 1" xmlns="http://www.w3.org/2000/svg" viewBox="0 0 84.52 84.52">
  <path d="M68.86,8.88c.55.29.71.75.69,1.35-.03,1.09,0,2.17,0,3.26,0,1.11-.27,1.38-1.38,1.39-.17,0-.35,0-.58,0-.02.21-.04.39-.04.58,0,3.04,0,6.08-.01,9.13,0,.39.12.62.45.84,2.09,1.37,4.16,2.76,6.24,4.15,1.05.7,1.56,1.7,1.39,2.95-.16,1.22-.87,2.07-2.04,2.47-.97.33-1.88.15-2.73-.42-1.06-.71-2.12-1.41-3.3-2.2,0,.38,0,.63,0,.88,0,5.43,0,10.86,0,16.3,0,.2,0,.39,0,.59-.04.64-.45,1.08-1,1.06-.56-.01-.94-.43-.95-1.1,0-3.39,0-6.78,0-10.17,0-2.74-.01-5.48.01-8.21,0-.46-.12-.74-.52-1-7.45-4.95-14.89-9.92-22.33-14.89-.36-.24-.6-.25-.97,0-7.45,4.99-14.92,9.96-22.38,14.93-.32.21-.47.42-.47.83.01,12.49,0,24.99.01,37.48,0,.15.01.3.02.5h2.07c0-.26,0-.52,0-.77,0-5.98,0-11.95,0-17.93,0-1.24.26-1.51,1.48-1.51,3.74,0,7.47,0,11.21,0,1.16,0,1.41.26,1.41,1.42,0,6,0,11.99,0,17.99v.8h5.66c-.7-1.24-.51-2.56-.51-3.85-.01-3.65,0-7.3,0-10.95,0-1.11.26-1.37,1.39-1.37.52,0,1.04,0,1.62,0,0-1.31.03-2.57-.01-3.82-.02-.52-.48-.72-.94-.87-3.31-1.11-6.62-2.22-9.93-3.34-1.67-.56-3.33-1.12-4.99-1.68-1.65-.56-2.33-1.51-2.34-3.26,0-1.3,0-2.61,0-3.91,0-2.22,1.15-3.37,3.37-3.38.19,0,.39,0,.68,0,0-.36,0-.67,0-.99.05-1.83,1.27-3.06,3.1-3.06,8.04,0,16.08,0,24.12,0,1.82,0,3.06,1.24,3.08,3.08.02,1.26.01,2.52,0,3.78-.01,2-1.21,3.18-3.22,3.19-.24,0-.47,0-.78,0-.02.27-.04.49-.04.72,0,1.46.02,2.91-.01,4.37-.04,1.62-1.13,2.82-2.63,3-1.5.17-2.85-.69-3.24-2.13-.12-.45-.12-.94-.12-1.42-.02-1.02,0-2.04,0-3.06,0-.92-.32-1.39-.98-1.44-.65-.05-1.03.37-1.15,1.28-.22,1.64-1.28,2.66-2.81,2.72-1.72.06-2.96-1.01-3.13-2.72-.04-.41-.05-.82-.07-1.31-.26,0-.49,0-.72,0-2.69,0-5.39,0-8.08,0-2.15,0-3.3-1.14-3.31-3.29,0-.22,0-.43,0-.73-.45,0-.86-.05-1.25.01-.55.08-.83.47-.83,1.01-.01,1.54-.01,3.09,0,4.63,0,.59.38.88.91,1.05,3.66,1.22,7.32,2.45,10.98,3.68,1.4.47,2.8.94,4.19,1.42,1.44.5,2.13,1.48,2.14,2.99,0,1.13,0,2.26,0,3.49.63,0,1.23,0,1.83,0,.87.02,1.19.33,1.19,1.18,0,4.3.02,8.6-.02,12.91,0,.7-.23,1.39-.36,2.1h17.67v-.79c0-4.58,0-9.17,0-13.75,0-.22-.01-.44.01-.65.06-.53.38-.83.9-.87.49-.03.84.21.98.69.07.25.07.51.07.77,0,4.58,0,9.17,0,13.75,0,.26,0,.52,0,.87.94,0,1.84,0,2.75,0,.97,0,1.29.32,1.3,1.28,0,1.15,0,2.3,0,3.45,0,.92-.34,1.27-1.25,1.27-7.89,0-15.78,0-23.66,0-.77,0-1.22-.36-1.23-.96-.01-.62.45-.99,1.26-.99,7.37,0,14.73,0,22.1,0,.26,0,.51,0,.8,0v-2.04H14.92v2.04h.77c8.65,0,17.3,0,25.94,0,1.03,0,1.47.29,1.49.95.02.69-.45,1-1.51,1-9.06,0-18.12,0-27.18,0-1.23,0-1.5-.26-1.5-1.48,0-1.09,0-2.17,0-3.26,0-.93.33-1.26,1.25-1.27.91,0,1.81,0,2.76,0v-37.22c-1.12.74-2.15,1.45-3.2,2.13-1.52.98-3.09.79-4.2-.55-.29-.36-.45-.83-.67-1.24,0-.39,0-.78,0-1.17.32-1.08,1.06-1.78,1.99-2.38,2.7-1.75,5.35-3.56,8.03-5.34,1.52-1.01,3.03-2.03,4.56-3.03.55-.36,1.11-.27,1.44.2.32.47.19,1.02-.34,1.41-.07.05-.14.1-.22.14-3.31,2.21-6.61,4.41-9.92,6.62-1.03.69-2.07,1.36-3.08,2.07-.53.37-.64.95-.34,1.43.32.51.9.64,1.48.33.19-.1.37-.23.55-.35,9.41-6.27,18.82-12.55,28.24-18.83.93-.62,1.07-.61,1.98,0,9.45,6.3,18.9,12.6,28.35,18.9.22.14.43.29.67.4.46.2.85.06,1.16-.31.33-.4.36-.84.06-1.26-.13-.19-.34-.34-.53-.47-9.93-6.63-19.87-13.25-29.8-19.89-.63-.42-1.14-.42-1.78,0-4.25,2.86-8.52,5.69-12.79,8.53-.2.13-.4.27-.62.36-.47.18-.87.03-1.14-.38-.27-.41-.22-.83.11-1.19.15-.16.34-.27.52-.39,2.56-1.71,5.12-3.44,7.7-5.13,2.13-1.4,4.3-2.76,6.45-4.14.43,0,.87,0,1.3,0,.58.33,1.18.62,1.73.99,4.07,2.7,8.12,5.41,12.18,8.11.19.12.39.23.61.35v-3.45c-.23,0-.4,0-.57,0-1.13-.01-1.42-.29-1.42-1.43,0-1.06.03-2.13-.01-3.19-.02-.6.16-1.05.65-1.38h12.78ZM23.02,69.59h10.1v-18.22h-10.1v18.22ZM39.26,31.1c-.23,1.52,0,1.86,1.37,2.09,1.54.26,2.54,1.37,2.59,2.96.04,1.17.01,2.35.01,3.52,0,1.1.26,1.52.95,1.57.73.06,1.04-.32,1.18-1.44.18-1.42,1.38-2.5,2.85-2.57,1.38-.07,2.73.94,3.02,2.29.08.38.09.78.1,1.17.01,1.19,0,2.39.02,3.59.01.64.38.99.95,1.03.61.03,1.01-.31,1.11-.95.03-.19.02-.39.02-.59,0-3.98,0-7.95,0-11.93v-.73h-14.18ZM46.33,55.42h-4.02c-.03.08-.06.12-.06.16,0,4.06-.02,8.12,0,12.18,0,.87.55,1.45,1.35,1.74,1.34.49,2.71-.5,2.72-1.99.02-3.69,0-7.38,0-11.07,0-.32,0-.64,0-1.02ZM37.18,31.06c-1.65,0-3.23,0-4.81,0-.95,0-1.28.34-1.29,1.31,0,1.17,0,2.34,0,3.51,0,1.01.31,1.31,1.33,1.31,2.73,0,5.47,0,8.2,0,.21,0,.42,0,.61,0,.18-1.32,0-2.08-1.47-2.15-1.24-.05-2.28-1.18-2.46-2.42-.07-.49-.07-.99-.11-1.56ZM59.44,14.91c0,1.48.02,2.89-.01,4.3,0,.4.15.62.47.83,1.63,1.07,3.26,2.16,4.88,3.24.23.15.46.3.75.49v-8.87h-6.1ZM67.53,12.9v-2h-10.1v2h10.1ZM55.44,31.06v6.13c.36,0,.69.01,1.01,0,.65-.03,1.02-.35,1.03-1.01.03-1.37.03-2.73,0-4.1-.01-.64-.4-.98-1.05-1.01-.32-.02-.64,0-.99,0Z"/>
  <path d="M52.35,55.33c-1.73-.01-2.98-1.29-2.95-3.03.02-1.62,1.34-2.9,2.97-2.91,1.65,0,3,1.33,3,2.96,0,1.72-1.29,2.99-3.02,2.98ZM52.35,53.39c.58.02,1.04-.42,1.05-1,.01-.59-.4-1.03-1-1.04-.6-.01-1.03.39-1.05.98-.01.58.41,1.04.99,1.05Z"/>
</svg>