<?xml version="1.0" encoding="UTF-8"?>
<svg id="Layer_1" data-name="Layer 1" xmlns="http://www.w3.org/2000/svg" viewBox="0 0 84.52 84.52">
  <path d="M16.79,19.9c-1.27-.85-2.01-1.96-2.05-3.47-.06-2.38,1.67-4.26,4.05-4.39.2-.01.39-.01.59-.01,15.27,0,30.55,0,45.82,0,1.42,0,2.65.4,3.59,1.51,1.52,1.79,1.32,4.36-.47,5.89-.18.15-.37.29-.62.49.19.08.34.13.48.19,2.69,1.05,4.31,3.41,4.32,6.3,0,2.65,0,5.3,0,7.95,0,4.88-1.72,9.18-4.6,13.03-.81,1.08-1.12,2.12-1.11,3.44.06,5.08.03,10.17.02,15.25,0,3.14-1.8,5.53-4.69,6.24-.58.14-1.2.2-1.8.2-12.04.01-24.07.01-36.11,0-3.89,0-6.5-2.61-6.51-6.5-.01-5.45-.01-10.91.01-16.36,0-.61-.19-1.06-.55-1.53-2.56-3.27-4.35-6.89-4.94-11.04-.13-.94-.18-1.9-.19-2.86-.03-2.52,0-5.04,0-7.56,0-3.21,1.45-5.36,4.44-6.6.09-.04.18-.09.32-.16ZM64.3,20.49c-1.27,0-2.44,0-3.61,0-1.55,0-1.88.32-1.88,1.86,0,5.21,0,10.43,0,15.64,0,1.98-1.16,3.61-2.89,4.12-2.57.76-5.13-1.15-5.16-3.88-.03-3.13,0-6.26,0-9.39,0-.24.01-.48-.01-.72-.08-.76-.63-1.34-1.31-1.4-.75-.07-1.37.38-1.57,1.17-.06.25-.08.51-.08.77-.01.83.02,1.65-.02,2.48-.13,2.49-2.46,4.25-4.88,3.7-1.86-.42-3.1-2-3.12-4.04-.02-2.87,0-5.74,0-8.6,0-1.28-.42-1.7-1.66-1.7-5.74,0-11.47,0-17.21,0h-.6c-.03.12-.03.14-.03.16,0,8.97-.01,17.95,0,26.92,0,.21.12.47.27.62,1,.97,1.96,1.98,3.04,2.84,6.5,5.14,13.9,7.25,22.12,6.35,7.11-.77,13.16-3.77,18.14-8.92.36-.37.51-.73.51-1.25-.02-8.65-.01-17.3-.01-25.94,0-.23,0-.47,0-.78ZM64.3,51.51c-6.35,5.68-13.66,8.6-22.04,8.6-8.39,0-15.71-2.92-21.98-8.54-.04.12-.06.16-.06.2,0,4.93-.02,9.86.01,14.79,0,1.21.64,2.14,1.63,2.82.75.51,1.61.6,2.49.6,11.9,0,23.81,0,35.71,0,.22,0,.43,0,.65,0,2.15-.13,3.57-1.62,3.58-3.78,0-2.09,0-4.17,0-6.26,0-2.76,0-5.52,0-8.42ZM42.26,14.55c-7.56,0-15.12,0-22.68,0-.3,0-.61,0-.91.04-.79.12-1.37.76-1.43,1.54-.06.76.39,1.47,1.14,1.7.37.11.77.14,1.15.14,6.19,0,12.38,0,18.57,0,2.63,0,4.15,1.54,4.15,4.18,0,2.87,0,5.73,0,8.6,0,.77.35,1.32.96,1.56,1,.39,1.98-.32,2.03-1.52.04-.93,0-1.87.02-2.8.07-2.33,2.21-4.13,4.51-3.79,2.11.31,3.47,1.88,3.48,4.11.02,3.02,0,6.04,0,9.06,0,.35,0,.7.03,1.04.09.77.69,1.32,1.44,1.34.69.02,1.33-.49,1.48-1.23.06-.32.07-.65.07-.97,0-5.17,0-10.34,0-15.51,0-2.53,1.54-4.06,4.05-4.07,1.59,0,3.17,0,4.76,0,.36,0,.74-.05,1.08-.17.75-.27,1.19-1,1.1-1.74-.09-.78-.69-1.38-1.5-1.48-.3-.04-.61-.04-.91-.04-7.54,0-15.07,0-22.61,0ZM17.58,44.37c.06-.07.09-.09.09-.1,0-3.77.02-7.55.01-11.32,0-.13-.12-.34-.23-.39-.94-.39-1.9-.75-2.84-1.11-.39,4.57.35,8.94,2.97,12.93ZM69.91,31.42c-.84.35-1.68.75-2.55,1.04-.4.13-.55.27-.55.7.02,3.61,0,7.21.01,10.82,0,.13.04.25.08.47,2.66-4.06,3.41-8.43,3.01-13.02ZM66.88,22.35v7.61c1.86-.51,3.11-2.09,3.09-3.85-.02-1.75-1.26-3.29-3.09-3.77ZM17.63,29.97v-7.63c-1.86.54-3.08,2.06-3.08,3.81,0,1.74,1.2,3.25,3.08,3.83Z"/>
</svg>